<svg xmlns="http://www.w3.org/2000/svg" width="32" height="32" viewBox="0 0 375 375">
  <rect width="375" height="375" fill="#1a1a2e"/>
  <g transform="translate(-55, 0)">
    <path fill="#4fb5f3" d="M55.72 317.79V34.48h79.97c24.64 0 46.43 5.45 65.37 16.34 18.94 10.9 33.56 26.4 43.88 46.52 10.31 20.1 15.53 43.19 15.67 69.26v18.09c0 26.72-5.16 50.14-15.47 70.25-10.31 20.1-25.04 35.54-44.17 46.31-19.14 10.76-41.42 16.27-66.85 16.53H55.72zm37.36-30.55h39.3c28.8 0 51.21-8.95 67.23-26.84 16.02-17.91 24.03-43.4 24.03-76.49v-16.53c0-32.18-7.56-57.18-22.67-75.02-15.12-17.83-36.56-26.88-64.31-27.14H93.08v222.02z"/>
  </g>
  <g transform="translate(19, 0)">
    <path fill="#ef6307" d="M55.72 317.79V34.48h79.97c24.64 0 46.43 5.45 65.37 16.34 18.94 10.9 33.56 26.4 43.88 46.52 10.31 20.1 15.53 43.19 15.67 69.26v18.09c0 26.72-5.16 50.14-15.47 70.25-10.31 20.1-25.04 35.54-44.17 46.31-19.14 10.76-41.42 16.27-66.85 16.53H55.72zm37.36-30.55h39.3c28.8 0 51.21-8.95 67.23-26.84 16.02-17.91 24.03-43.4 24.03-76.49v-16.53c0-32.18-7.56-57.18-22.67-75.02-15.12-17.83-36.56-26.88-64.31-27.14H93.08v222.02z"/>
  </g>
</svg>