<svg xmlns="http://www.w3.org/2000/svg" width="1200" height="630" viewBox="0 0 1200 630">
  <defs>
    <linearGradient id="bg" x1="0%" y1="0%" x2="100%" y2="100%">
      <stop offset="0%" style="stop-color:#1a1a2e"/>
      <stop offset="50%" style="stop-color:#16213e"/>
      <stop offset="100%" style="stop-color:#0f0f23"/>
    </linearGradient>
    <linearGradient id="textGradient" x1="0%" y1="0%" x2="100%" y2="0%">
      <stop offset="0%" style="stop-color:#4fb5f3"/>
      <stop offset="100%" style="stop-color:#ef6307"/>
    </linearGradient>
  </defs>

  <!-- Background -->
  <rect width="1200" height="630" fill="url(#bg)"/>

  <!-- Logo - Two D letters -->
  <g transform="translate(510, 150) scale(0.4)">
    <g transform="translate(-55, 0)">
      <path fill="#4fb5f3" d="M55.72 317.79V34.48h79.97c24.64 0 46.43 5.45 65.37 16.34 18.94 10.9 33.56 26.4 43.88 46.52 10.31 20.1 15.53 43.19 15.67 69.26v18.09c0 26.72-5.16 50.14-15.47 70.25-10.31 20.1-25.04 35.54-44.17 46.31-19.14 10.76-41.42 16.27-66.85 16.53H55.72zm37.36-30.55h39.3c28.8 0 51.21-8.95 67.23-26.84 16.02-17.91 24.03-43.4 24.03-76.49v-16.53c0-32.18-7.56-57.18-22.67-75.02-15.12-17.83-36.56-26.88-64.31-27.14H93.08v222.02z"/>
    </g>
    <g transform="translate(19, 0)">
      <path fill="#ef6307" d="M55.72 317.79V34.48h79.97c24.64 0 46.43 5.45 65.37 16.34 18.94 10.9 33.56 26.4 43.88 46.52 10.31 20.1 15.53 43.19 15.67 69.26v18.09c0 26.72-5.16 50.14-15.47 70.25-10.31 20.1-25.04 35.54-44.17 46.31-19.14 10.76-41.42 16.27-66.85 16.53H55.72zm37.36-30.55h39.3c28.8 0 51.21-8.95 67.23-26.84 16.02-17.91 24.03-43.4 24.03-76.49v-16.53c0-32.18-7.56-57.18-22.67-75.02-15.12-17.83-36.56-26.88-64.31-27.14H93.08v222.02z"/>
    </g>
  </g>

  <!-- Coming Soon Text -->
  <text x="600" y="420" text-anchor="middle" font-family="-apple-system, BlinkMacSystemFont, 'Segoe UI', Roboto, sans-serif" font-size="72" font-weight="300" letter-spacing="12" fill="url(#textGradient)">COMING SOON</text>

  <!-- Tagline -->
  <text x="600" y="480" text-anchor="middle" font-family="-apple-system, BlinkMacSystemFont, 'Segoe UI', Roboto, sans-serif" font-size="24" font-weight="300" fill="#a0a0a0">Human insight. AI power. Unified results.</text>
</svg>