<svg xmlns="http://www.w3.org/2000/svg" xmlns:xlink="http://www.w3.org/1999/xlink" width="500" zoomAndPan="magnify" viewBox="0 0 375 149.999998" height="200" preserveAspectRatio="xMidYMid meet" version="1.0"><defs><g/><clipPath id="0fbaec5709"><rect x="0" width="202" y="0" height="84"/></clipPath><clipPath id="74e868350d"><rect x="0" width="123" y="0" height="150"/></clipPath><clipPath id="2948ae7f50"><rect x="0" width="125" y="0" height="150"/></clipPath></defs><rect x="-37.5" width="450" fill="#ffffff" y="-15" height="179.999997" fill-opacity="1"/><rect x="-37.5" width="450" fill="#000000" y="-15" height="179.999997" fill-opacity="1"/><g transform="matrix(1, 0, 0, 1, 150, 63)"><g clip-path="url(#0fbaec5709)"><g fill="#ef6307" fill-opacity="1"><g transform="translate(1.105473, 65.439962)"><g><path d="M 16.953125 -9.296875 L 25.59375 -37.125 L 32.390625 -37.125 L 17.46875 5.734375 C 15.15625 11.910156 11.484375 15 6.453125 15 L 5.25 14.890625 L 2.875 14.4375 L 2.875 9.296875 L 4.59375 9.4375 C 6.75 9.4375 8.425781 9 9.625 8.125 C 10.820312 7.257812 11.8125 5.671875 12.59375 3.359375 L 14 -0.40625 L 0.75 -37.125 L 7.6875 -37.125 Z M 16.953125 -9.296875 "/></g></g></g><g fill="#ef6307" fill-opacity="1"><g transform="translate(33.834458, 65.439962)"><g><path d="M 27.71875 0 C 27.351562 -0.726562 27.054688 -2.03125 26.828125 -3.90625 C 23.878906 -0.84375 20.359375 0.6875 16.265625 0.6875 C 12.597656 0.6875 9.59375 -0.347656 7.25 -2.421875 C 4.90625 -4.492188 3.734375 -7.117188 3.734375 -10.296875 C 3.734375 -14.160156 5.203125 -17.160156 8.140625 -19.296875 C 11.085938 -21.429688 15.222656 -22.5 20.546875 -22.5 L 26.734375 -22.5 L 26.734375 -25.421875 C 26.734375 -27.640625 26.066406 -29.40625 24.734375 -30.71875 C 23.410156 -32.039062 21.457031 -32.703125 18.875 -32.703125 C 16.601562 -32.703125 14.703125 -32.128906 13.171875 -30.984375 C 11.640625 -29.835938 10.875 -28.453125 10.875 -26.828125 L 4.5 -26.828125 C 4.5 -28.679688 5.15625 -30.472656 6.46875 -32.203125 C 7.78125 -33.929688 9.5625 -35.296875 11.8125 -36.296875 C 14.070312 -37.304688 16.550781 -37.8125 19.25 -37.8125 C 23.519531 -37.8125 26.867188 -36.738281 29.296875 -34.59375 C 31.722656 -32.457031 32.984375 -29.515625 33.078125 -25.765625 L 33.078125 -8.6875 C 33.078125 -5.269531 33.507812 -2.554688 34.375 -0.546875 L 34.375 0 Z M 17.1875 -4.84375 C 19.175781 -4.84375 21.0625 -5.351562 22.84375 -6.375 C 24.632812 -7.40625 25.929688 -8.742188 26.734375 -10.390625 L 26.734375 -18.015625 L 21.75 -18.015625 C 13.976562 -18.015625 10.09375 -15.738281 10.09375 -11.1875 C 10.09375 -9.195312 10.753906 -7.640625 12.078125 -6.515625 C 13.398438 -5.398438 15.101562 -4.84375 17.1875 -4.84375 Z M 17.1875 -4.84375 "/></g></g></g><g fill="#ef6307" fill-opacity="1"><g transform="translate(72.052611, 65.439962)"><g><path d="M 3.265625 -18.875 C 3.265625 -24.5625 4.613281 -29.140625 7.3125 -32.609375 C 10.007812 -36.078125 13.539062 -37.8125 17.90625 -37.8125 C 22.25 -37.8125 25.691406 -36.320312 28.234375 -33.34375 L 28.234375 -52.703125 L 34.578125 -52.703125 L 34.578125 0 L 28.75 0 L 28.4375 -3.984375 C 25.90625 -0.867188 22.375 0.6875 17.84375 0.6875 C 13.539062 0.6875 10.035156 -1.070312 7.328125 -4.59375 C 4.617188 -8.113281 3.265625 -12.710938 3.265625 -18.390625 Z M 9.609375 -18.15625 C 9.609375 -13.945312 10.476562 -10.648438 12.21875 -8.265625 C 13.957031 -5.890625 16.359375 -4.703125 19.421875 -4.703125 C 23.441406 -4.703125 26.378906 -6.507812 28.234375 -10.125 L 28.234375 -27.171875 C 26.335938 -30.671875 23.421875 -32.421875 19.484375 -32.421875 C 16.378906 -32.421875 13.957031 -31.21875 12.21875 -28.8125 C 10.476562 -26.414062 9.609375 -22.863281 9.609375 -18.15625 Z M 9.609375 -18.15625 "/></g></g></g><g fill="#ef6307" fill-opacity="1"><g transform="translate(111.677357, 65.439962)"><g><path d="M 4.9375 -3.328125 C 4.9375 -4.421875 5.257812 -5.332031 5.90625 -6.0625 C 6.5625 -6.800781 7.539062 -7.171875 8.84375 -7.171875 C 10.15625 -7.171875 11.144531 -6.800781 11.8125 -6.0625 C 12.488281 -5.332031 12.828125 -4.421875 12.828125 -3.328125 C 12.828125 -2.273438 12.488281 -1.394531 11.8125 -0.6875 C 11.144531 0.0195312 10.15625 0.375 8.84375 0.375 C 7.539062 0.375 6.5625 0.0195312 5.90625 -0.6875 C 5.257812 -1.394531 4.9375 -2.273438 4.9375 -3.328125 Z M 4.9375 -3.328125 "/></g></g></g><g fill="#ef6307" fill-opacity="1"><g transform="translate(130.168905, 65.439962)"><g><path d="M 19.6875 -4.5 C 21.957031 -4.5 23.9375 -5.179688 25.625 -6.546875 C 27.320312 -7.921875 28.257812 -9.640625 28.4375 -11.703125 L 34.453125 -11.703125 C 34.335938 -9.578125 33.601562 -7.550781 32.25 -5.625 C 30.90625 -3.707031 29.101562 -2.175781 26.84375 -1.03125 C 24.59375 0.113281 22.207031 0.6875 19.6875 0.6875 C 14.632812 0.6875 10.613281 -1 7.625 -4.375 C 4.644531 -7.75 3.15625 -12.363281 3.15625 -18.21875 L 3.15625 -19.28125 C 3.15625 -22.894531 3.816406 -26.109375 5.140625 -28.921875 C 6.472656 -31.734375 8.378906 -33.914062 10.859375 -35.46875 C 13.335938 -37.03125 16.269531 -37.8125 19.65625 -37.8125 C 23.820312 -37.8125 27.28125 -36.5625 30.03125 -34.0625 C 32.789062 -31.570312 34.265625 -28.335938 34.453125 -24.359375 L 28.4375 -24.359375 C 28.257812 -26.765625 27.351562 -28.738281 25.71875 -30.28125 C 24.082031 -31.820312 22.0625 -32.59375 19.65625 -32.59375 C 16.4375 -32.59375 13.9375 -31.429688 12.15625 -29.109375 C 10.382812 -26.785156 9.5 -23.429688 9.5 -19.046875 L 9.5 -17.84375 C 9.5 -13.5625 10.378906 -10.265625 12.140625 -7.953125 C 13.898438 -5.648438 16.414062 -4.5 19.6875 -4.5 Z M 19.6875 -4.5 "/></g></g></g><g fill="#ef6307" fill-opacity="1"><g transform="translate(166.946158, 65.439962)"><g><path d="M 17.25 -23.578125 L 25.484375 -37.125 L 32.90625 -37.125 L 20.75 -18.765625 L 33.28125 0 L 25.9375 0 L 17.359375 -13.890625 L 8.78125 0 L 1.40625 0 L 13.921875 -18.765625 L 1.78125 -37.125 L 9.125 -37.125 Z M 17.25 -23.578125 "/></g></g></g></g></g><g transform="matrix(1, 0, 0, 1, 0, -0.000000000000007527)"><g clip-path="url(#74e868350d)"><g fill="#289ad6" fill-opacity="1"><g transform="translate(-0.150779, 138.231751)"><g><path d="M 15.296875 0 L 15.296875 -131.84375 L 52.515625 -131.84375 C 63.984375 -131.84375 74.125 -129.304688 82.9375 -124.234375 C 91.757812 -119.160156 98.566406 -111.945312 103.359375 -102.59375 C 108.160156 -93.238281 110.59375 -82.492188 110.65625 -70.359375 L 110.65625 -61.9375 C 110.65625 -49.5 108.253906 -38.601562 103.453125 -29.25 C 98.660156 -19.894531 91.8125 -12.710938 82.90625 -7.703125 C 74 -2.691406 63.628906 -0.125 51.796875 0 Z M 32.6875 -117.53125 L 32.6875 -14.21875 L 50.984375 -14.21875 C 64.378906 -14.21875 74.804688 -18.378906 82.265625 -26.703125 C 89.722656 -35.035156 93.453125 -46.898438 93.453125 -62.296875 L 93.453125 -70 C 93.453125 -84.96875 89.9375 -96.601562 82.90625 -104.90625 C 75.875 -113.207031 65.894531 -117.414062 52.96875 -117.53125 Z M 32.6875 -117.53125 "/></g></g></g></g></g><g transform="matrix(1, 0, 0, 1, 32, -0.000000000000007527)"><g clip-path="url(#2948ae7f50)"><g fill="#ef6307" fill-opacity="1"><g transform="translate(2.206318, 138.231751)"><g><path d="M 15.296875 0 L 15.296875 -131.84375 L 52.515625 -131.84375 C 63.984375 -131.84375 74.125 -129.304688 82.9375 -124.234375 C 91.757812 -119.160156 98.566406 -111.945312 103.359375 -102.59375 C 108.160156 -93.238281 110.59375 -82.492188 110.65625 -70.359375 L 110.65625 -61.9375 C 110.65625 -49.5 108.253906 -38.601562 103.453125 -29.25 C 98.660156 -19.894531 91.8125 -12.710938 82.90625 -7.703125 C 74 -2.691406 63.628906 -0.125 51.796875 0 Z M 32.6875 -117.53125 L 32.6875 -14.21875 L 50.984375 -14.21875 C 64.378906 -14.21875 74.804688 -18.378906 82.265625 -26.703125 C 89.722656 -35.035156 93.453125 -46.898438 93.453125 -62.296875 L 93.453125 -70 C 93.453125 -84.96875 89.9375 -96.601562 82.90625 -104.90625 C 75.875 -113.207031 65.894531 -117.414062 52.96875 -117.53125 Z M 32.6875 -117.53125 "/></g></g></g></g></g></svg>