<svg xmlns="http://www.w3.org/2000/svg" xmlns:xlink="http://www.w3.org/1999/xlink" width="500" zoomAndPan="magnify" viewBox="0 0 375 374.999991" height="500" preserveAspectRatio="xMidYMid meet" version="1.0"><defs><g/><clipPath id="65056934b1"><rect x="0" width="268" y="0" height="375"/></clipPath><clipPath id="55c38137c0"><rect x="0" width="268" y="0" height="375"/></clipPath></defs><rect x="-37.5" width="450" fill="#ffffff" y="-37.499999" height="449.999989" fill-opacity="1"/><rect x="-37.5" width="450" fill="#000000" y="-37.499999" height="449.999989" fill-opacity="1"/><g transform="matrix(1, 0, 0, 1, 19, 0)"><g clip-path="url(#65056934b1)"><g fill="#289ad6" fill-opacity="1"><g transform="translate(3.831297, 317.792659)"><g><path d="M 32.890625 0 L 32.890625 -283.3125 L 112.859375 -283.3125 C 137.503906 -283.3125 159.296875 -277.863281 178.234375 -266.96875 C 197.171875 -256.070312 211.796875 -240.566406 222.109375 -220.453125 C 232.421875 -200.347656 237.644531 -177.257812 237.78125 -151.1875 L 237.78125 -133.09375 C 237.78125 -106.375 232.625 -82.957031 222.3125 -62.84375 C 212 -42.738281 197.273438 -27.300781 178.140625 -16.53125 C 159.003906 -5.769531 136.722656 -0.257812 111.296875 0 Z M 70.25 -252.5625 L 70.25 -30.546875 L 109.546875 -30.546875 C 138.347656 -30.546875 160.757812 -39.492188 176.78125 -57.390625 C 192.800781 -75.296875 200.8125 -100.789062 200.8125 -133.875 L 200.8125 -150.40625 C 200.8125 -182.582031 193.253906 -207.585938 178.140625 -225.421875 C 163.023438 -243.253906 141.585938 -252.300781 113.828125 -252.5625 Z M 70.25 -252.5625 "/></g></g></g></g></g><g transform="matrix(1, 0, 0, 1, 93, 0)"><g clip-path="url(#55c38137c0)"><g fill="#ef6307" fill-opacity="1"><g transform="translate(3.66119, 317.792659)"><g><path d="M 32.890625 0 L 32.890625 -283.3125 L 112.859375 -283.3125 C 137.503906 -283.3125 159.296875 -277.863281 178.234375 -266.96875 C 197.171875 -256.070312 211.796875 -240.566406 222.109375 -220.453125 C 232.421875 -200.347656 237.644531 -177.257812 237.78125 -151.1875 L 237.78125 -133.09375 C 237.78125 -106.375 232.625 -82.957031 222.3125 -62.84375 C 212 -42.738281 197.273438 -27.300781 178.140625 -16.53125 C 159.003906 -5.769531 136.722656 -0.257812 111.296875 0 Z M 70.25 -252.5625 L 70.25 -30.546875 L 109.546875 -30.546875 C 138.347656 -30.546875 160.757812 -39.492188 176.78125 -57.390625 C 192.800781 -75.296875 200.8125 -100.789062 200.8125 -133.875 L 200.8125 -150.40625 C 200.8125 -182.582031 193.253906 -207.585938 178.140625 -225.421875 C 163.023438 -243.253906 141.585938 -252.300781 113.828125 -252.5625 Z M 70.25 -252.5625 "/></g></g></g></g></g></svg>